<?xml version="1.0" encoding="UTF-8"?>
<svg xmlns="http://www.w3.org/2000/svg" xmlns:xlink="http://www.w3.org/1999/xlink" width="15pt" height="14pt" viewBox="0 0 15 14" version="1.1">
<g id="surface1">
<path style=" stroke:none;fill-rule:nonzero;fill:rgb(0%,0%,0%);fill-opacity:1;" d="M 14.242188 6.515625 L 7.324219 0.0859375 C 7.234375 -0.00390625 7.082031 -0.00390625 6.984375 0.0859375 L 0.0664062 6.515625 C -0.0234375 6.605469 -0.0234375 6.742188 0.0664062 6.832031 C 0.117188 6.871094 0.175781 6.898438 0.238281 6.898438 L 1.902344 6.898438 L 1.902344 13.113281 C 1.902344 13.175781 1.933594 13.230469 1.976562 13.273438 C 2.023438 13.3125 2.078125 13.335938 2.148438 13.335938 L 5.480469 13.335938 C 5.617188 13.335938 5.722656 13.234375 5.722656 13.113281 L 5.722656 8.675781 L 8.585938 8.675781 L 8.585938 13.113281 C 8.585938 13.234375 8.691406 13.335938 8.824219 13.335938 L 12.164062 13.335938 C 12.292969 13.335938 12.402344 13.234375 12.402344 13.113281 L 12.402344 6.898438 L 14.078125 6.898438 C 14.148438 6.898438 14.203125 6.878906 14.242188 6.832031 C 14.320312 6.730469 14.339844 6.605469 14.242188 6.515625 Z M 14.242188 6.515625 "/>
</g>
</svg>
